<svg width="67" height="67" viewBox="0 0 67 67" fill="none" xmlns="http://www.w3.org/2000/svg">
<path d="M61.4464 4.19504L10.0666 55.5749C9.09167 56.5499 8.54399 57.8722 8.54399 59.251C8.54399 60.6297 9.09167 61.9521 10.0666 62.927C11.0417 63.9016 12.364 64.4491 13.7427 64.4491C15.1213 64.4491 16.4436 63.9016 17.4187 62.927L29.9698 50.1598C30.7911 49.3258 31.2519 48.2024 31.2528 47.0318V46.2606C31.2527 45.6696 31.37 45.0844 31.5979 44.539C31.8258 43.9937 32.1598 43.499 32.5804 43.0838L34.2009 41.5874C34.751 41.0798 35.4199 40.7188 36.1462 40.5375C36.8724 40.3562 37.6325 40.3604 38.3567 40.5499C39.4986 40.8479 40.6986 40.8422 41.8376 40.5332C42.9766 40.2242 44.015 39.6228 44.8498 38.7885L56.7635 26.8734C63.8311 19.8058 66.432 9.13318 61.4464 4.19504Z" stroke="#A01627" stroke-width="4" stroke-linejoin="round"/>
<path d="M13.6813 2L24.4543 12.773C25.2833 13.6018 25.9409 14.5858 26.3895 15.6688C26.8382 16.7518 27.0691 17.9125 27.0691 19.0848V21.1571C27.069 21.4503 27.1268 21.7406 27.239 22.0115C27.3512 22.2824 27.5157 22.5285 27.7231 22.7357L29.3004 24.313" stroke="#A01627" stroke-width="4" stroke-linecap="round" stroke-linejoin="round"/>
<path d="M24.8378 28.7756L23.2605 27.1984C23.0533 26.991 22.8072 26.8265 22.5363 26.7142C22.2654 26.602 21.9751 26.5443 21.6819 26.5443H19.6096C18.4373 26.5443 17.2766 26.3134 16.1936 25.8648C15.1106 25.4161 14.1266 24.7585 13.2978 23.9295L2.5248 13.1565" stroke="#A01627" stroke-width="4" stroke-linecap="round" stroke-linejoin="round"/>
<path d="M8.10302 7.57828L19.2595 18.7348" stroke="#A01627" stroke-width="4" stroke-linecap="round" stroke-linejoin="round"/>
<path d="M41.5725 48.8573L55.4791 62.842C56.5252 63.8877 57.9438 64.4752 59.4229 64.4752C60.9021 64.4752 62.3207 63.8877 63.3668 62.842C64.4125 61.7959 65 60.3773 65 58.8982C65 57.419 64.4125 56.0004 63.3668 54.9543L51.6134 43.2791" stroke="#A01627" stroke-width="4" stroke-linecap="round" stroke-linejoin="round"/>
</svg>
