<svg width="34" height="34" viewBox="0 0 34 34" fill="none" xmlns="http://www.w3.org/2000/svg">
<path d="M16.6316 32.4598C7.90715 32.4598 0.804077 25.3568 0.804077 16.6323C0.804077 7.90791 7.90715 0.804836 16.6316 0.804836C25.356 0.804836 32.4591 7.90791 32.4591 16.6323C32.4591 25.3568 25.356 32.4598 16.6316 32.4598ZM16.6316 3.12106C9.17335 3.12106 3.1203 9.18955 3.1203 16.6323C3.1203 24.0751 9.17335 30.1436 16.6316 30.1436C24.0898 30.1436 30.1429 24.0751 30.1429 16.6323C30.1429 9.18955 24.0898 3.12106 16.6316 3.12106Z" fill="#858585"/>
<path d="M32.8458 34.0038C32.5524 34.0038 32.259 33.8957 32.0274 33.6641L28.9391 30.5758C28.4913 30.128 28.4913 29.3868 28.9391 28.939C29.3869 28.4912 30.1281 28.4912 30.5759 28.939L33.6642 32.0273C34.112 32.4751 34.112 33.2163 33.6642 33.6641C33.4326 33.8957 33.1392 34.0038 32.8458 34.0038Z" fill="#858585"/>
</svg>
