<svg width="62" height="59" viewBox="0 0 62 59" fill="none" xmlns="http://www.w3.org/2000/svg">
<path d="M55.708 19.9154C56.9751 22.87 57.6744 26.1046 57.6744 29.5H62C62 25.5624 61.1882 21.8 59.7129 18.3601L55.708 19.9154ZM57.6744 29.5C57.6744 31.3038 57.4772 33.0614 57.1026 34.7551L61.3353 35.6025C61.7713 33.6319 62 31.5902 62 29.5H57.6744ZM57.1026 34.7551C54.9355 44.5552 46.8207 52.2773 36.5223 54.3396L37.4128 58.3675C49.3895 55.9693 58.8152 46.9997 61.3353 35.6025L57.1026 34.7551ZM36.5223 54.3396C34.7425 54.696 32.8955 54.8837 31 54.8837V59C33.1965 59 35.342 58.7824 37.4128 58.3675L36.5223 54.3396ZM31 54.8837C29.1045 54.8837 27.2575 54.696 25.4777 54.3396L24.5871 58.3675C26.658 58.7824 28.8035 59 31 59V54.8837ZM4.32558 29.5C4.32558 26.1021 5.02601 22.865 6.29496 19.9085L2.29051 18.352C0.813152 21.7941 0 25.5593 0 29.5H4.32558ZM25.4777 54.3396C15.1794 52.2773 7.06442 44.5552 4.89745 34.7551L0.664554 35.6025C3.18464 46.9997 12.6107 55.9693 24.5871 58.3675L25.4777 54.3396ZM4.89745 34.7551C4.52294 33.0614 4.32558 31.3038 4.32558 29.5H0C0 31.5902 0.228795 33.6319 0.664554 35.6025L4.89745 34.7551ZM6.29496 19.9085C9.59772 12.2134 16.7569 6.40674 25.4777 4.66048L24.5871 0.632398C14.4398 2.66428 6.1275 9.41228 2.29051 18.352L6.29496 19.9085ZM25.4777 4.66048C27.2575 4.30409 29.1045 4.11628 31 4.11628V0C28.8035 0 26.658 0.217724 24.5871 0.632398L25.4777 4.66048ZM31 4.11628C32.8955 4.11628 34.7425 4.30409 36.5223 4.66048L37.4128 0.632425C35.342 0.217724 33.1965 0 31 0V4.11628ZM36.5223 4.66048C45.2459 6.40726 52.4067 12.2169 55.708 19.9154L59.7129 18.3601C55.8776 9.41634 47.5632 2.66491 37.4128 0.632425L36.5223 4.66048ZM34.9072 3.27209C35.7028 5.64512 38.6482 14.7721 39.8553 23.1578L44.1411 22.5991C42.8801 13.8402 39.8357 4.42931 39.028 2.02082L34.9072 3.27209ZM39.8553 23.1578C40.1789 25.4051 40.3721 27.5634 40.3721 29.5H44.6977C44.6977 27.32 44.4817 24.9655 44.1411 22.5991L39.8553 23.1578ZM56.8474 17.2597C53.6825 18.1732 47.738 19.7775 41.6057 20.8545L42.3907 24.9024C48.751 23.7853 54.8694 22.132 58.1026 21.1988L56.8474 17.2597ZM41.6057 20.8545C37.8857 21.5078 34.1712 21.9535 31 21.9535V26.0698C34.5447 26.0698 38.5493 25.5772 42.3907 24.9024L41.6057 20.8545ZM40.3721 29.5C40.3721 32.369 39.9488 35.7076 39.3155 39.0769L43.5736 39.8014C44.2288 36.3146 44.6977 32.7102 44.6977 29.5H40.3721ZM39.3155 39.0769C37.9281 46.4621 35.5969 53.6708 34.9072 55.7278L39.028 56.9792C39.7359 54.8681 42.1355 47.4558 43.5736 39.8014L39.3155 39.0769ZM58.5615 33.2181C56.3998 33.8745 48.8246 36.0929 41.0639 37.4131L41.8252 41.4652C49.8688 40.0967 57.658 37.8132 59.8764 37.1395L58.5615 33.2181ZM41.0639 37.4131C37.5233 38.0158 34.0149 38.4186 31 38.4186V42.5349C34.3734 42.5349 38.1611 42.0887 41.8252 41.4652L41.0639 37.4131ZM31 38.4186C27.9851 38.4186 24.4766 38.0158 20.936 37.4131L20.1747 41.4652C23.8389 42.0887 27.6266 42.5349 31 42.5349V38.4186ZM20.936 37.4131C13.1753 36.0929 5.6001 33.8745 3.43846 33.2181L2.12357 37.1395C4.34196 37.8132 12.1314 40.0967 20.1747 41.4652L20.936 37.4131ZM17.3023 29.5C17.3023 32.7102 17.7712 36.3146 18.4263 39.8014L22.6844 39.0769C22.0513 35.7076 21.6279 32.369 21.6279 29.5H17.3023ZM18.4263 39.8014C19.8645 47.4558 22.2641 54.8681 22.972 56.9792L27.0928 55.7278C26.4031 53.6708 24.072 46.4621 22.6844 39.0769L18.4263 39.8014ZM22.972 2.02082C22.1644 4.42931 19.1199 13.8402 17.859 22.5991L22.1446 23.1578C23.3518 14.7721 26.2972 5.64512 27.0928 3.27209L22.972 2.02082ZM17.859 22.5991C17.5183 24.9655 17.3023 27.32 17.3023 29.5H21.6279C21.6279 27.5634 21.821 25.4051 22.1446 23.1578L17.859 22.5991ZM31 21.9535C27.8288 21.9535 24.1144 21.5078 20.3943 20.8545L19.6092 24.9024C23.4507 25.5772 27.4553 26.0698 31 26.0698V21.9535ZM20.3943 20.8545C14.2597 19.7771 8.31336 18.1721 5.14937 17.2588L3.8938 21.1978C7.12611 22.1308 13.2467 23.785 19.6092 24.9024L20.3943 20.8545ZM56.7139 17.3112C56.7522 17.2923 56.7978 17.274 56.8474 17.2597L58.1026 21.1988C58.316 21.1372 58.5168 21.0584 58.7071 20.9643L56.7139 17.3112ZM3.16436 20.8861C3.38846 21.0165 3.63173 21.1222 3.8938 21.1978L5.14937 17.2588C5.24932 17.2876 5.34149 17.3281 5.42111 17.3744L3.16436 20.8861Z" fill="#686868"/>
</svg>
